# xmcd CD database file
# Copyright (C) 1993-1998 Ti Kan
#
# Track frame offsets:
#	150
#	19967
#	33800
#	50500
#	63962
#	77450
#	96612
#	107687
#	119312
#	137225
#	157712
#	178575
#	200737
#	219580
#	234637
#	257495
#	269325
#
# Disc length: 3958 seconds
#
# Revision: 1
# Processed by: cddbd v1.4b41PL1 Copyright (c) Steve Scherf et al.
# Submitted via: NotifyCDPlayer(CDDB) 1.51.2
#
DISCID=ea0f7411
DTITLE=Chris LeDoux - Chris LeDoux - Chris LeDoux - Live
DYEAR=1900
DGENRE=
TTITLE0=Take Me To The Rodeo
TTITLE1=County Fair
TTITLE2=Wild And Wooly
TTITLE3=Cadillac Ranch
TTITLE4=Whatcha Gonna Do With A Cowboy
TTITLE5=Riding For A Fall
TTITLE6=Copenhagen
TTITLE7=Copenhagen Angel
TTITLE8=Bareback Jack
TTITLE9=This Cowboy's Hat
TTITLE10=Gravitational Pull
TTITLE11=Honky Tonk World
TTITLE12=Hooked On An 8 Second Ride
TTITLE13=Cadillac Cowboy
TTITLE14=For Your Love
TTITLE15=You Just Can't See Him From The Road
TTITLE16=Little Long Haired Outlaw
EXTD=
EXTT0=
EXTT1=
EXTT2=
EXTT3=
EXTT4=
EXTT5=
EXTT6=
EXTT7=
EXTT8=
EXTT9=
EXTT10=
EXTT11=
EXTT12=
EXTT13=
EXTT14=
EXTT15=
EXTT16=
PLAYORDER=
